<svg height="260" viewBox="0 0 260 260" width="260" xmlns="http://www.w3.org/2000/svg" xmlns:xlink="http://www.w3.org/1999/xlink"><defs><path id="a" d="m31.3567839 172.981997 40.4167867 20.890457c3.9753081 2.05474 8.6604113 2.227298 12.7761004.470558l143.440279-61.226017"/></defs><g fill="none" fill-rule="evenodd"><path d="m0 0h260v260h-260z" fill="#011627"/><path d="m85.295373 242.925306 150.168662-66.630305c5.782921-2.5659 9.510839-8.298394 9.510839-14.625006v-28.12869c0-6.671814-4.139979-12.643299-10.387914-14.983474l-51.430623-19.263429c-3.739772-1.4007379-7.868179-1.3523152-11.574067.135754l-143.2527935 57.521991c-6.0641082 2.434993-10.0380192 8.312997-10.0380192 14.84772v32.377703c0 5.870827 3.2152295 11.270149 8.3768869 14.067273l44.5147549 24.12273c4.3630566 2.364358 9.5762327 2.570389 14.1122739.557733z" fill="#ff9f1c" stroke="#ffe730" stroke-linejoin="round" stroke-width="4"/><g stroke-linecap="round" stroke-linejoin="round"><use stroke="#979797" xlink:href="#a"/><use stroke="#ffe730" stroke-width="10" xlink:href="#a"/></g><g fill="#8fd0ca" stroke="#b0d5d1"><ellipse cx="68.919598" cy="90.584331" rx="28.48995" ry="28.163317" stroke-width="9"/><ellipse cx="152.537688" cy="40.282824" rx="23.110553" ry="23.437186" stroke-width="8"/><ellipse cx="145.351759" cy="115.408452" rx="16.577889" ry="16.251256" stroke-width="8"/></g></g></svg>